<svg width="21" height="21" viewBox="0 0 21 21" fill="none" xmlns="http://www.w3.org/2000/svg">
<path d="M6.97678 2.53254L7.87428 2.24588C8.71428 1.97754 9.61261 2.41171 9.97261 3.26004L10.6893 4.95005C11.0018 5.68588 10.8284 6.55171 10.2609 7.09004L8.68345 8.58838C8.78067 9.48505 9.08178 10.3675 9.58678 11.2359C10.067 12.0758 10.7105 12.811 11.4793 13.3984L13.3759 12.765C14.0943 12.5259 14.8768 12.8017 15.3176 13.4492L16.3443 14.9575C16.8576 15.7109 16.7651 16.7492 16.1293 17.3875L15.4476 18.0717C14.7693 18.7525 13.8009 19 12.9043 18.72C10.7887 18.06 8.84345 16.1009 7.06845 12.8425C5.29123 9.57866 4.664 6.80977 5.18678 4.53588C5.40678 3.57921 6.08845 2.81671 6.97845 2.53254" fill="#B5A595"/>
</svg>
