<svg width="27" height="26" viewBox="0 0 27 26" fill="none" xmlns="http://www.w3.org/2000/svg">
<path d="M13.5 14.625C12.6965 14.625 11.9111 14.3867 11.243 13.9403C10.5749 13.494 10.0542 12.8595 9.74674 12.1172C9.43926 11.3748 9.35881 10.558 9.51556 9.76995C9.67231 8.9819 10.0592 8.25803 10.6274 7.68988C11.1955 7.12173 11.9194 6.73481 12.7074 6.57806C13.4955 6.42131 14.3123 6.50176 15.0547 6.80924C15.797 7.11672 16.4315 7.63742 16.8778 8.3055C17.3242 8.97357 17.5625 9.75902 17.5625 10.5625C17.5612 11.6395 17.1328 12.6721 16.3712 13.4337C15.6096 14.1953 14.577 14.6237 13.5 14.625ZM13.5 8.125C13.0179 8.125 12.5466 8.26796 12.1458 8.5358C11.745 8.80363 11.4325 9.18432 11.248 9.62971C11.0636 10.0751 11.0153 10.5652 11.1093 11.038C11.2034 11.5109 11.4355 11.9452 11.7764 12.2861C12.1173 12.627 12.5516 12.8591 13.0245 12.9532C13.4973 13.0472 13.9874 12.9989 14.4328 12.8145C14.8782 12.63 15.2589 12.3176 15.5267 11.9167C15.7945 11.5159 15.9375 11.0446 15.9375 10.5625C15.9369 9.91624 15.6798 9.29662 15.2229 8.83964C14.7659 8.38266 14.1463 8.12565 13.5 8.125Z" fill="#B5A595"/>
<path d="M13.5 24.375L6.64576 16.2914C6.55051 16.1701 6.45626 16.0479 6.36301 15.925C5.19277 14.3824 4.56033 12.4988 4.56251 10.5625C4.56251 8.19213 5.50413 5.91884 7.18024 4.24273C8.85635 2.56663 11.1296 1.625 13.5 1.625C15.8704 1.625 18.1437 2.56663 19.8198 4.24273C21.4959 5.91884 22.4375 8.19213 22.4375 10.5625C22.4394 12.4978 21.8073 14.3805 20.6378 15.9226L20.637 15.925C20.637 15.925 20.3933 16.2451 20.3567 16.2882L13.5 24.375ZM7.66057 14.9459C7.66057 14.9459 7.84988 15.1962 7.89294 15.2498L13.5 21.8628L19.1144 15.2409C19.1501 15.1962 19.3403 14.9443 19.3411 14.9435C20.2976 13.6834 20.8144 12.1445 20.8125 10.5625C20.8125 8.6231 20.0421 6.76314 18.6707 5.39178C17.2994 4.02042 15.4394 3.25 13.5 3.25C11.5606 3.25 9.70065 4.02042 8.32929 5.39178C6.95793 6.76314 6.18751 8.6231 6.18751 10.5625C6.1855 12.1455 6.70299 13.6854 7.66057 14.9459Z" fill="#B5A595"/>
</svg>
