<svg width="31" height="30" viewBox="0 0 31 30" fill="none" xmlns="http://www.w3.org/2000/svg">
<path d="M23.75 6C24.7446 6 25.6984 6.39509 26.4016 7.09835C27.1049 7.80161 27.5 8.75544 27.5 9.75V21.75C27.5 22.7446 27.1049 23.6984 26.4016 24.4016C25.6984 25.1049 24.7446 25.5 23.75 25.5H7.25C6.25544 25.5 5.30161 25.1049 4.59835 24.4016C3.89509 23.6984 3.5 22.7446 3.5 21.75V9.75C3.5 8.75544 3.89509 7.80161 4.59835 7.09835C5.30161 6.39509 6.25544 6 7.25 6H23.75ZM26 11.9415L15.881 17.8965C15.7853 17.9527 15.6784 17.9869 15.5679 17.9968C15.4574 18.0066 15.3461 17.9918 15.242 17.9535L15.119 17.8965L5 11.9445V21.75C5 22.3467 5.23705 22.919 5.65901 23.341C6.08097 23.7629 6.65326 24 7.25 24H23.75C24.3467 24 24.919 23.7629 25.341 23.341C25.7629 22.919 26 22.3467 26 21.75V11.9415ZM23.75 7.5H7.25C6.65326 7.5 6.08097 7.73705 5.65901 8.15901C5.23705 8.58097 5 9.15326 5 9.75V10.203L15.5 16.38L26 10.2V9.75C26 9.15326 25.7629 8.58097 25.341 8.15901C24.919 7.73705 24.3467 7.5 23.75 7.5Z" fill="#B5A595"/>
</svg>
