<svg width="31" height="30" viewBox="0 0 31 30" fill="none" xmlns="http://www.w3.org/2000/svg">
<path d="M22.5 7.90006C21.5837 6.97684 20.4929 6.24502 19.2912 5.74716C18.0895 5.24931 16.8008 4.99535 15.5 5.00006C13.7611 5.00176 12.0531 5.46031 10.5471 6.32978C9.04118 7.19926 7.7901 8.44915 6.91917 9.95427C6.04825 11.4594 5.58807 13.1669 5.5847 14.9059C5.58134 16.6448 6.03491 18.3541 6.9 19.8626L5.5 25.0001L10.75 23.6251C12.1991 24.4331 13.8284 24.863 15.4875 24.8751C18.1246 24.8752 20.6549 23.8336 22.5278 21.9771C24.4007 20.1207 25.4644 17.5995 25.4875 14.9626C25.4787 13.6467 25.2103 12.3455 24.6976 11.1336C24.185 9.92164 23.4382 8.82281 22.5 7.90006ZM15.5 23.1626C14.0223 23.1623 12.5717 22.7651 11.3 22.0126L11 21.8251L7.8875 22.6501L8.7125 19.6126L8.5125 19.3001C7.44906 17.5834 7.05218 15.5363 7.39703 13.5466C7.74188 11.5569 8.80451 9.76277 10.3836 8.5041C11.9627 7.24543 13.9487 6.60964 15.9652 6.71717C17.9817 6.8247 19.8887 7.66809 21.325 9.08756C22.895 10.6228 23.7938 12.7169 23.825 14.9126C23.8052 17.1075 22.9194 19.2057 21.3603 20.7508C19.8012 22.2959 17.695 23.1627 15.5 23.1626ZM20.0125 16.9876C19.7625 16.8626 18.55 16.2626 18.325 16.1876C18.1 16.1126 17.925 16.0626 17.7625 16.3126C17.5179 16.6477 17.255 16.969 16.975 17.2751C16.8375 17.4501 16.6875 17.4626 16.4375 17.2751C15.0122 16.7118 13.8246 15.6743 13.075 14.3376C12.8125 13.9001 13.325 13.9251 13.8 12.9876C13.8351 12.92 13.8534 12.845 13.8534 12.7688C13.8534 12.6927 13.8351 12.6177 13.8 12.5501C13.8 12.4251 13.2375 11.2001 13.0375 10.7126C12.8375 10.2251 12.6375 10.3001 12.475 10.2876H11.9875C11.861 10.2887 11.7363 10.3172 11.622 10.3712C11.5076 10.4251 11.4063 10.5032 11.325 10.6001C11.0452 10.8733 10.8269 11.203 10.6846 11.5673C10.5423 11.9316 10.4794 12.322 10.5 12.7126C10.5769 13.648 10.9292 14.5397 11.5125 15.2751C12.5782 16.8694 14.0379 18.1612 15.75 19.0251C16.6481 19.5494 17.6919 19.7686 18.725 19.6501C19.069 19.5818 19.3948 19.4419 19.6813 19.2395C19.9677 19.037 20.2083 18.7766 20.3875 18.4751C20.555 18.1075 20.6073 17.6979 20.5375 17.3001C20.425 17.1751 20.2625 17.1126 20.0125 16.9876Z" fill="#B5A595"/>
</svg>
